<?xml version="1.0" encoding="UTF-8"?>
<svg id="_レイヤー_1" data-name="レイヤー 1" xmlns="http://www.w3.org/2000/svg" viewBox="0 0 1379.05 500">
  <g>
    <g>
      <path d="M163.74,172.53c0-10.76,2.05-20.97,6.16-30.61,4.11-9.63,9.81-18.17,17.11-25.61,7.3-7.44,15.76-13.29,25.4-17.54,9.64-4.25,19.98-6.37,31.04-6.37s21.18,2.13,30.82,6.37c9.63,4.25,18.17,10.1,25.61,17.54,7.44,7.44,13.25,15.98,17.43,25.61,4.18,9.64,6.27,19.84,6.27,30.61s-2.09,21.4-6.27,31.04c-4.18,9.64-9.99,18.1-17.43,25.4-7.44,7.3-15.98,13-25.61,17.11-9.64,4.11-19.91,6.16-30.82,6.16s-21.4-2.05-31.04-6.16c-9.64-4.11-18.1-9.81-25.4-17.11-7.3-7.3-13-15.76-17.11-25.4-4.11-9.63-6.16-19.98-6.16-31.04ZM195.62,172.53c0,6.94,1.24,13.43,3.72,19.45,2.48,6.02,5.95,11.34,10.42,15.94,4.46,4.61,9.63,8.18,15.52,10.74,5.88,2.55,12.29,3.82,19.24,3.82s12.86-1.27,18.6-3.82c5.74-2.55,10.73-6.13,14.99-10.74,4.25-4.61,7.58-9.92,9.99-15.94,2.41-6.02,3.61-12.51,3.61-19.45s-1.24-13.67-3.72-19.77c-2.48-6.09-5.88-11.44-10.2-16.05-4.33-4.6-9.39-8.18-15.2-10.73-5.81-2.55-12.12-3.83-18.92-3.83s-13.11,1.27-18.92,3.83c-5.81,2.55-10.91,6.13-15.31,10.73-4.39,4.61-7.79,9.96-10.2,16.05-2.41,6.09-3.61,12.68-3.61,19.77Z"/>
      <path d="M344.85,172.53c0-10.76,2.05-20.97,6.16-30.61,4.11-9.63,9.81-18.17,17.11-25.61,7.3-7.44,15.76-13.29,25.4-17.54,9.64-4.25,19.98-6.37,31.04-6.37s21.18,2.13,30.82,6.37c9.63,4.25,18.17,10.1,25.61,17.54,7.44,7.44,13.25,15.98,17.43,25.61,4.18,9.64,6.27,19.84,6.27,30.61s-2.09,21.4-6.27,31.04c-4.18,9.64-9.99,18.1-17.43,25.4-7.44,7.3-15.98,13-25.61,17.11-9.64,4.11-19.91,6.16-30.82,6.16s-21.4-2.05-31.04-6.16c-9.64-4.11-18.1-9.81-25.4-17.11-7.3-7.3-13-15.76-17.11-25.4-4.11-9.63-6.16-19.98-6.16-31.04ZM376.73,172.53c0,6.94,1.24,13.43,3.72,19.45,2.48,6.02,5.95,11.34,10.42,15.94,4.46,4.61,9.63,8.18,15.52,10.74,5.88,2.55,12.29,3.82,19.24,3.82s12.86-1.27,18.6-3.82c5.74-2.55,10.73-6.13,14.99-10.74,4.25-4.61,7.58-9.92,9.99-15.94,2.41-6.02,3.61-12.51,3.61-19.45s-1.24-13.67-3.72-19.77c-2.48-6.09-5.88-11.44-10.2-16.05-4.33-4.6-9.39-8.18-15.2-10.73-5.81-2.55-12.12-3.83-18.92-3.83s-13.11,1.27-18.92,3.83c-5.81,2.55-10.91,6.13-15.31,10.73-4.39,4.61-7.79,9.96-10.2,16.05-2.41,6.09-3.61,12.68-3.61,19.77Z"/>
      <path d="M520.64,94.09h105.43v29.76h-38.05v126.69h-30.82v-126.69h-36.56v-29.76Z"/>
      <path d="M637.76,172.53c0-10.76,2.05-20.97,6.16-30.61,4.11-9.63,9.81-18.17,17.11-25.61,7.3-7.44,15.76-13.29,25.4-17.54,9.64-4.25,19.98-6.37,31.04-6.37s21.18,2.13,30.82,6.37c9.63,4.25,18.17,10.1,25.61,17.54,7.44,7.44,13.25,15.98,17.43,25.61,4.18,9.64,6.27,19.84,6.27,30.61s-2.09,21.4-6.27,31.04c-4.18,9.64-9.99,18.1-17.43,25.4s-15.98,13-25.61,17.11c-9.64,4.11-19.91,6.16-30.82,6.16s-21.4-2.05-31.04-6.16c-9.64-4.11-18.1-9.81-25.4-17.11-7.3-7.3-13-15.76-17.11-25.4-4.11-9.63-6.16-19.98-6.16-31.04ZM669.65,172.53c0,6.94,1.24,13.43,3.72,19.45,2.48,6.02,5.95,11.34,10.42,15.94,4.46,4.61,9.63,8.18,15.52,10.74,5.88,2.55,12.29,3.82,19.24,3.82s12.86-1.27,18.6-3.82c5.74-2.55,10.73-6.13,14.99-10.74,4.25-4.61,7.58-9.92,9.99-15.94,2.41-6.02,3.61-12.51,3.61-19.45s-1.24-13.67-3.72-19.77c-2.48-6.09-5.88-11.44-10.2-16.05-4.33-4.6-9.39-8.18-15.2-10.73-5.81-2.55-12.12-3.83-18.92-3.83s-13.11,1.27-18.92,3.83c-5.81,2.55-10.91,6.13-15.31,10.73-4.39,4.61-7.79,9.96-10.2,16.05-2.41,6.09-3.61,12.68-3.61,19.77Z"/>
      <path d="M871.59,94.09c12.89,0,23.81,2.16,32.74,6.48,8.93,4.33,15.73,10.42,20.41,18.28,4.68,7.87,7.01,17.18,7.01,27.95,0,6.38-.96,12.79-2.87,19.24-1.91,6.45-4.96,12.29-9.14,17.54-4.18,5.24-9.78,9.46-16.79,12.65-7.01,3.19-15.62,4.78-25.83,4.78h-22.11v49.53h-30.82V94.09h47.4ZM876.9,171.04c4.68,0,8.57-.81,11.69-2.45,3.11-1.63,5.56-3.68,7.33-6.16,1.77-2.48,3.04-5.07,3.83-7.76.78-2.69,1.17-5.03,1.17-7.01,0-1.56-.25-3.65-.74-6.27-.5-2.62-1.53-5.28-3.08-7.97-1.56-2.69-3.93-4.96-7.12-6.8s-7.48-2.76-12.86-2.76h-22.11v47.19h21.89Z"/>
      <path d="M987.01,192.72c0,4.96,1.49,9.71,4.46,14.24,2.98,4.54,6.91,8.22,11.8,11.06s10.24,4.25,16.05,4.25c6.38,0,12.04-1.42,17-4.25,4.96-2.83,8.89-6.52,11.8-11.06,2.9-4.53,4.36-9.28,4.36-14.24v-98.63h30.4v99.27c0,11.48-2.84,21.65-8.5,30.5-5.67,8.86-13.32,15.81-22.96,20.83-9.64,5.03-20.34,7.55-32.1,7.55s-22.21-2.52-31.78-7.55c-9.57-5.03-17.19-11.97-22.85-20.83-5.67-8.85-8.5-19.03-8.5-30.5v-99.27h30.82v98.63Z"/>
      <path d="M1203.62,131.93c-5.95-3.26-12.01-5.95-18.17-8.08-6.16-2.13-11.94-3.19-17.32-3.19-6.66,0-11.91,1.35-15.73,4.04-3.83,2.69-5.74,6.73-5.74,12.11,0,3.69,1.45,6.98,4.36,9.88,2.9,2.91,6.66,5.49,11.27,7.76,4.6,2.27,9.39,4.33,14.35,6.16,4.54,1.7,9.04,3.72,13.5,6.06,4.46,2.34,8.47,5.24,12.01,8.71,3.54,3.47,6.38,7.8,8.5,12.97,2.13,5.17,3.19,11.51,3.19,19.03,0,7.94-2.06,15.3-6.16,22.11-4.11,6.81-10.13,12.3-18.07,16.48-7.94,4.18-17.72,6.27-29.33,6.27-5.95,0-12.01-.6-18.17-1.81-6.17-1.2-12.22-3.04-18.17-5.53-5.95-2.48-11.69-5.63-17.22-9.46l13.6-24.02c3.68,2.69,7.68,5.07,12.01,7.12,4.32,2.06,8.68,3.65,13.07,4.78,4.39,1.13,8.43,1.7,12.12,1.7s7.4-.53,11.16-1.6c3.75-1.06,6.87-2.87,9.35-5.42,2.48-2.55,3.72-6.09,3.72-10.63,0-3.12-1.03-5.95-3.08-8.5-2.06-2.55-4.82-4.89-8.29-7.01-3.47-2.13-7.26-3.97-11.37-5.53-4.82-1.84-9.78-3.97-14.88-6.38-5.1-2.41-9.88-5.35-14.35-8.82-4.46-3.47-8.08-7.79-10.84-12.96s-4.14-11.51-4.14-19.03c0-9.07,2.02-16.93,6.06-23.59,4.04-6.66,9.74-11.94,17.11-15.84,7.37-3.89,15.87-6.06,25.51-6.48,12.61,0,22.85,1.49,30.72,4.47,7.87,2.98,14.91,6.52,21.15,10.63l-11.69,23.59Z"/>
    </g>
    <g>
      <path d="M348.56,331.15c0,3.02-.92,5.18-3.02,7.34-2.37,2.37-4.15,3.02-7.44,3.02h-6.42c-3.83,0-5.34-1.08-7.34-3.02-2.59-2.64-3.02-4.42-3.02-7.34v-18.55c0-3.02.92-5.23,3.02-7.34,2.37-2.37,4.15-3.08,7.44-3.08h6.42c3.83,0,5.34,1.13,7.28,3.08,2.64,2.59,3.08,4.37,3.08,7.34v18.55ZM325.59,331.8c0,1.08.22,1.83,1.35,3.18.27.32.65.65.97.97.75.75,1.35,1.24,3.13,1.24,2.16,0,4.86.05,7.88,0,1.46,0,1.99-.16,3.13-1.24.32-.32.7-.65.97-.97,1.13-1.3,1.3-1.89,1.3-3.13l-.05-19.96c0-1.08-.16-1.78-1.3-3.12-.27-.38-.65-.65-.97-.97-.75-.75-1.35-1.29-3.13-1.29-2.21,0-4.85-.05-7.87,0-1.46.05-1.99.21-3.13,1.29-.32.27-.7.6-.97.97-1.13,1.29-1.29,1.83-1.29,3.12v19.91Z"/>
      <path d="M372.12,311.73c3.61.05,5.07.81,7.34,3.08,1.99,1.99,3.02,3.67,3.02,7.28v8.9c0,3.88-1.13,5.28-3.02,7.34-2.64,2.7-4.15,3.02-7.34,3.02h-8.31v10.74c0,1.18-.92,2.15-2.11,2.15s-2.16-.97-2.16-2.27v-35.76c0-2.43,2.05-4.48,4.58-4.48h7.98ZM375.95,317.29c-1.08-1.02-1.67-1.3-3.13-1.3h-9.01v21.09h8.95c1.08,0,1.94-.16,3.13-1.3.27-.32.7-.7,1.03-1.02,1.02-1.24,1.29-1.94,1.29-3.13v-10.25c0-1.08-.22-1.99-1.29-3.13-.32-.27-.65-.65-.97-.97Z"/>
      <path d="M411.22,311.68c2.53,0,4.58,2.05,4.58,4.58l-.05,7.6c0,2.54-2.05,4.58-4.58,4.58h-14.46v3.18c0,1.46.22,2,1.3,3.13.32.32.65.65.97.97,1.08,1.02,1.89,1.3,3.13,1.3h9.39v-2.54c0-1.18.97-2.15,2.16-2.15s2.16.97,2.16,2.15l-.05,2.21c0,2.54-2.05,4.58-4.58,4.58h-8.36c-3.67,0-4.8-.49-7.34-3.02-2.05-2.05-3.02-2.97-3.02-7.34v-8.9c0-3.67.59-4.91,3.02-7.34,2.1-2.1,3.45-3.02,7.34-3.02h8.41ZM396.71,324.19h14.78v-8.25h-9.39c-1.24,0-1.89.22-3.13,1.3-.32.32-.65.7-.97.97-1.02,1.02-1.3,1.62-1.3,3.13v2.86Z"/>
      <path d="M432.51,315.99v23.95c0,1.19-.97,2.16-2.16,2.16s-2.11-.97-2.11-2.16v-23.62c0-2.75,2.11-4.58,4.58-4.58h7.5c4.1,0,5.07.76,7.34,3.02,2.05,2.05,3.02,3.5,3.02,7.34v17.85c0,1.19-.92,2.11-2.1,2.11s-2.16-.92-2.16-2.11v-18.55c0-1.19-.11-1.94-1.29-3.13-.32-.32-.65-.65-.97-.97-.81-.81-1.35-1.3-3.13-1.3h-8.52Z"/>
      <path d="M517.77,328.45c0,1.13-.97,2.11-2.16,2.11h-3.78c-.11,2.75-1.02,5.93-3.02,7.93-2.37,2.37-4.15,3.02-7.44,3.02h-6.37c-3.83,0-5.39-1.08-7.34-3.02-2.64-2.64-3.07-4.42-3.07-7.34v-18.55c0-3.02.92-5.23,3.02-7.34,2.37-2.37,4.15-3.08,7.44-3.08h6.42c3.83,0,5.39,1.13,7.34,3.08,2.59,2.59,3.02,4.37,3.02,7.34v13.7h3.78c1.19,0,2.16.97,2.16,2.15ZM507.57,330.56h-9.06c-1.19,0-2.16-.97-2.16-2.11s.97-2.15,2.16-2.15h9.06v-14.4c0-1.08-.22-1.78-1.35-3.12-.27-.38-.65-.65-.97-.97-.76-.75-1.35-1.29-3.13-1.29-2.16,0-4.85-.05-7.87,0-1.46.05-2,.21-3.13,1.29-.32.27-.7.6-.97.97-1.08,1.29-1.3,1.83-1.3,3.12v19.91c0,1.08.22,1.83,1.35,3.18.27.32.65.65.97.97.75.75,1.35,1.24,3.13,1.24,2.21,0,4.85.05,7.87,0,1.46,0,2-.16,3.13-1.24.32-.32.7-.65.97-.97,1.13-1.3,1.3-1.89,1.3-3.13v-1.3Z"/>
      <path d="M532.48,312.86v18.82c0,1.73.38,2.21,1.3,3.13.32.32.65.65.97.97,1.13,1.08,1.89,1.3,3.13,1.3,1.08,0,2.21.05,3.29,0,1.51-.05,2.32-.49,3.13-1.3.32-.32.65-.65.97-.97.92-.97,1.29-1.51,1.29-3.13v-18.82c0-1.18.97-2.1,2.16-2.1s2.1.92,2.1,2.1v18.12c0,3.45-.75,5.07-3.02,7.34-2.43,2.43-3.67,3.02-7.17,3.02h-2.05c-2.97,0-4.75-.43-7.34-3.02-2.48-2.48-3.02-3.4-3.02-7.34v-18.12c0-1.18.97-2.1,2.16-2.1s2.1.92,2.1,2.1Z"/>
      <path d="M582.68,320.74v-4.75h-15.86c-1.13,0-2.11-.97-2.11-2.15s.97-2.16,2.11-2.16h15.53c2.53,0,4.58,2.1,4.58,4.58v20.44c0,2.54-2.05,4.58-4.58,4.58h-8.47c-2.86,0-5.07-.65-7.5-3.07-2.21-2.21-2.97-3.56-2.97-7.18s.75-5.02,2.97-7.18c2.48-2.48,4.21-3.12,7.5-3.12h8.79ZM569.95,335.73c.92.92,1.89,1.3,3.13,1.3h9.6v-11.97h-9.6c-1.13,0-2.21.38-3.13,1.3-.32.27-.65.65-.97.97-.92.92-1.3,1.62-1.3,3.13v1.18c0,1.35.22,2.05,1.3,3.13.32.32.65.65.97.97Z"/>
      <path d="M603.12,315.99v23.95c0,1.19-.97,2.16-2.16,2.16s-2.11-.97-2.11-2.16v-23.62c0-2.75,2.11-4.58,4.58-4.58h7.5c4.1,0,5.07.76,7.34,3.02,2.05,2.05,3.02,3.5,3.02,7.34v17.85c0,1.19-.92,2.11-2.1,2.11s-2.16-.92-2.16-2.11v-18.55c0-1.19-.11-1.94-1.29-3.13-.32-.32-.65-.65-.97-.97-.81-.81-1.35-1.3-3.13-1.3h-8.52Z"/>
      <path d="M643.07,311.79h5.18c1.13,0,2.11.97,2.11,2.11s-.97,2.15-2.11,2.15h-5.18v21.04h4.75c1.19,0,2.1.92,2.1,2.11s-.92,2.15-2.1,2.15h-4.42c-2.53,0-4.58-2.1-4.58-4.64v-20.66h-3.02c-1.19,0-2.16-.97-2.16-2.15s.97-2.11,2.16-2.11h3.02v-4.64c0-1.19.92-2.16,2.11-2.16s2.16.97,2.16,2.16v4.64Z"/>
      <path d="M666.31,312.86v18.82c0,1.73.38,2.21,1.3,3.13.32.32.65.65.97.97,1.13,1.08,1.89,1.3,3.13,1.3,1.08,0,2.21.05,3.29,0,1.51-.05,2.32-.49,3.13-1.3.32-.32.65-.65.97-.97.92-.97,1.29-1.51,1.29-3.13v-18.82c0-1.18.97-2.1,2.16-2.1s2.1.92,2.1,2.1v18.12c0,3.45-.75,5.07-3.02,7.34-2.43,2.43-3.67,3.02-7.17,3.02h-2.05c-2.97,0-4.75-.43-7.34-3.02-2.48-2.48-3.02-3.4-3.02-7.34v-18.12c0-1.18.97-2.1,2.16-2.1s2.1.92,2.1,2.1Z"/>
      <path d="M718.45,315.99v24.11c0,1.18-.92,2.1-2.1,2.1s-2.16-.92-2.16-2.1v-18.01c0-1.35-.43-2.27-1.29-3.08-.49-.54-1.08-1.13-1.62-1.67-.81-.75-1.73-1.35-3.13-1.35h-5.29v24.11c0,1.18-.97,2.1-2.16,2.1s-2.1-.97-2.1-2.1v-23.73c0-2.53,2.05-4.69,4.58-4.69h5.12c2.21,0,4.32.97,5.88,2.53,0-1.46,1.19-2.48,2.64-2.48l6.74-.05c3.83,0,4.96.76,7.34,3.08,2.86,2.8,3.02,4.15,3.02,7.34v18.01c0,1.18-.97,2.1-2.16,2.1s-2.16-.92-2.16-2.1v-18.72c0-1.56-.27-1.99-1.29-3.13-.27-.32-.65-.65-.97-.97-.81-.81-1.67-1.3-3.13-1.3h-5.77Z"/>
      <path d="M782.46,306.45v33.92c0,1.13-.97,2.11-2.1,2.11s-2.16-.97-2.16-2.11v-33.92h-10.25c-1.19,0-2.16-.97-2.16-2.16s.97-2.11,2.16-2.11h24.81c1.19,0,2.16.92,2.16,2.11s-.97,2.16-2.16,2.16h-10.3Z"/>
      <path d="M812.44,311.73c3.29,0,4.96.65,7.33,3.02,2.37,2.37,3.08,4.04,3.08,7.34v8.95c0,3.99-.92,5.18-3.08,7.34-2.37,2.37-4.31,3.02-7.33,3.02h-3.29c-2.91,0-4.85-.54-7.28-3.02-2.21-2.21-3.08-3.56-3.08-7.34v-8.95c0-3.99.65-4.91,3.08-7.34,2.26-2.27,4.21-3.02,7.28-3.02h3.29ZM818.53,321.39c0-1.51-.43-2.11-1.3-3.13-.27-.32-.65-.65-.97-.97-1.08-1.08-1.51-1.24-3.13-1.3h-4.64c-1.51,0-1.99.27-3.13,1.3-.38.32-.65.65-.97.97-1.03,1.02-1.3,1.73-1.3,3.13v10.36c0,1.24.05,1.89,1.3,3.12.32.27.65.65.97.97.92.92,2.1,1.3,3.13,1.3h4.64c1.67,0,1.99-.16,3.13-1.3.32-.32.65-.7.97-.97,1.03-1.02,1.3-1.83,1.3-3.12v-10.36Z"/>
      <path d="M846.73,311.73c3.29,0,4.96.65,7.33,3.02,2.37,2.37,3.08,4.04,3.08,7.34v8.95c0,3.99-.92,5.18-3.08,7.34-2.37,2.37-4.31,3.02-7.33,3.02h-3.29c-2.91,0-4.85-.54-7.28-3.02-2.21-2.21-3.08-3.56-3.08-7.34v-8.95c0-3.99.65-4.91,3.08-7.34,2.26-2.27,4.21-3.02,7.28-3.02h3.29ZM852.82,321.39c0-1.51-.43-2.11-1.3-3.13-.27-.32-.65-.65-.97-.97-1.08-1.08-1.51-1.24-3.13-1.3h-4.64c-1.51,0-1.99.27-3.13,1.3-.38.32-.65.65-.97.97-1.03,1.02-1.3,1.73-1.3,3.13v10.36c0,1.24.05,1.89,1.3,3.12.32.27.65.65.97.97.92.92,2.1,1.3,3.13,1.3h4.64c1.67,0,1.99-.16,3.13-1.3.32-.32.65-.7.97-.97,1.03-1.02,1.3-1.83,1.3-3.12v-10.36Z"/>
      <path d="M871.21,303.43c0-1.19.97-2.16,2.16-2.16s2.16.97,2.16,2.16v36.62c0,1.18-.97,2.1-2.16,2.1s-2.16-.92-2.16-2.1v-36.62Z"/>
      <path d="M908.25,311.73c2.53,0,4.58,2.05,4.58,4.58v4.1c0,1.18-.92,2.16-2.1,2.16s-2.16-.97-2.16-2.16v-4.42h-8.84c-1.13,0-2,.16-3.13,1.3-.32.32-.65.65-.97.97-.86.81-1.3,1.94-1.3,3.13v10.25c0,1.51.43,2.27,1.3,3.13.32.32.59.65.97.97,1.03.92,1.62,1.3,3.13,1.3,2.59-.05,6.63,0,8.84,0v-5.39c0-1.18.97-2.15,2.16-2.15s2.1.97,2.1,2.15v5.12c0,2.54-2.05,4.53-4.58,4.53h-7.87c-3.02,0-4.85-.59-7.34-3.02-2.05-2.05-3.02-3.29-3.02-7.34v-8.84c0-3.73,1.19-5.5,3.02-7.34,2.53-2.54,4.42-3.02,7.34-3.02h7.87Z"/>
      <path d="M937.1,311.73c3.45,0,4.85.54,7.34,3.02,2.37,2.37,3.02,4.21,3.02,7.28v17.96c0,1.19-.97,2.16-2.16,2.16s-2.1-.97-2.1-2.16c0-4.26.11-14.35,0-18.61-.05-1.35-.43-2.16-1.29-3.13-.32-.32-.65-.65-.97-.97-.86-.86-1.67-1.3-3.13-1.3h-8.36v24c0,1.19-.97,2.16-2.16,2.16s-2.16-.97-2.16-2.16v-36.51c0-1.18.97-2.16,2.16-2.16s2.16.97,2.16,2.16v8.25h7.66Z"/>
      <path d="M977.6,320.74v-4.75h-15.86c-1.13,0-2.11-.97-2.11-2.15s.97-2.16,2.11-2.16h15.53c2.53,0,4.58,2.1,4.58,4.58v20.44c0,2.54-2.05,4.58-4.58,4.58h-8.47c-2.86,0-5.07-.65-7.5-3.07-2.21-2.21-2.97-3.56-2.97-7.18s.75-5.02,2.97-7.18c2.48-2.48,4.21-3.12,7.5-3.12h8.79ZM964.87,335.73c.92.92,1.89,1.3,3.13,1.3h9.6v-11.97h-9.6c-1.13,0-2.21.38-3.13,1.3-.32.27-.65.65-.97.97-.92.92-1.3,1.62-1.3,3.13v1.18c0,1.35.22,2.05,1.3,3.13.32.32.65.65.97.97Z"/>
      <path d="M999.11,305.04c0,1.19-.97,2.16-2.16,2.16s-2.16-.97-2.16-2.16v-4.58c0-1.19.97-2.16,2.16-2.16s2.16.97,2.16,2.16v4.58ZM994.79,313.35c0-1.19.97-2.16,2.16-2.16s2.16.97,2.16,2.16v26.64c0,1.19-.97,2.16-2.16,2.16s-2.16-.97-2.16-2.16v-26.64Z"/>
      <path d="M1017.87,315.99v23.95c0,1.19-.97,2.16-2.16,2.16s-2.11-.97-2.11-2.16v-23.62c0-2.75,2.11-4.58,4.58-4.58h7.5c4.1,0,5.07.76,7.34,3.02,2.05,2.05,3.02,3.5,3.02,7.34v17.85c0,1.19-.92,2.11-2.1,2.11s-2.16-.92-2.16-2.11v-18.55c0-1.19-.11-1.94-1.29-3.13-.32-.32-.65-.65-.97-.97-.81-.81-1.35-1.3-3.13-1.3h-8.52Z"/>
    </g>
    <g>
      <path d="M364.53,376.81h5.56c1.19,0,2.16.92,2.16,2.1s-.97,2.16-2.16,2.16h-5.56v24.16c0,1.19-.97,2.16-2.16,2.16s-2.1-.97-2.1-2.16v-24.16h-4.21c-1.19,0-2.16-.97-2.16-2.16s.97-2.1,2.16-2.1h4.21v-5.23c0-2.53,2.05-4.58,4.58-4.58l4.69-.05c1.19,0,2.16.97,2.16,2.16s-.97,2.1-2.16,2.1h-5.02v5.61Z"/>
      <path d="M395.54,376.76c3.29,0,4.96.65,7.33,3.02,2.37,2.37,3.08,4.05,3.08,7.34v8.95c0,3.99-.92,5.18-3.08,7.34-2.37,2.38-4.31,3.02-7.33,3.02h-3.29c-2.91,0-4.85-.54-7.28-3.02-2.21-2.21-3.08-3.56-3.08-7.34v-8.95c0-3.99.65-4.91,3.08-7.34,2.26-2.27,4.21-3.02,7.28-3.02h3.29ZM401.63,386.41c0-1.51-.43-2.11-1.3-3.13-.27-.32-.65-.65-.97-.97-1.08-1.08-1.51-1.24-3.13-1.3h-4.64c-1.51,0-1.99.27-3.13,1.3-.38.32-.65.65-.97.97-1.03,1.02-1.3,1.72-1.3,3.13v10.35c0,1.24.05,1.89,1.3,3.13.32.27.65.65.97.97.92.92,2.1,1.3,3.13,1.3h4.64c1.67,0,1.99-.16,3.13-1.3.32-.32.65-.7.97-.97,1.03-1.02,1.3-1.83,1.3-3.13v-10.35Z"/>
      <path d="M422.87,388.89v16.23c0,1.13-.97,2.11-2.16,2.11s-2.1-.97-2.1-2.11v-26.91c0-1.19.92-2.11,2.1-2.11s2.16.92,2.16,2.11v4.64l3.77-3.77c2.37-2.38,2.59-2.54,6.2-2.54,1.19,0,2.16.97,2.16,2.16s-.97,2.15-2.16,2.15h-1.94l-8.04,8.04Z"/>
      <path d="M490.44,396.17c0,3.02-.92,5.18-3.02,7.34-2.37,2.37-4.15,3.02-7.44,3.02h-6.42c-3.83,0-5.34-1.08-7.34-3.02-2.59-2.64-3.02-4.42-3.02-7.34v-18.56c0-3.02.92-5.23,3.02-7.34,2.37-2.37,4.15-3.07,7.44-3.07h6.42c3.83,0,5.34,1.13,7.28,3.07,2.64,2.59,3.08,4.37,3.08,7.34v18.56ZM467.47,396.82c0,1.08.22,1.83,1.35,3.18.27.32.65.65.97.97.75.76,1.35,1.24,3.13,1.24,2.16,0,4.85.05,7.88,0,1.46,0,1.99-.16,3.13-1.24.32-.32.7-.65.97-.97,1.13-1.3,1.3-1.89,1.3-3.13l-.05-19.95c0-1.08-.16-1.78-1.3-3.13-.27-.38-.65-.65-.97-.97-.75-.76-1.35-1.3-3.13-1.3-2.21,0-4.85-.05-7.87,0-1.46.05-2,.22-3.13,1.3-.32.27-.7.59-.97.97-1.13,1.3-1.29,1.83-1.29,3.13v19.9Z"/>
      <path d="M507.64,390.29v15.21c0,1.13-.92,2.11-2.1,2.11s-2.16-.97-2.16-2.11v-33.71c0-2.54,2.05-4.58,4.58-4.58h11.22c4.04,0,5.39,1.13,7.28,3.07,2.53,2.48,3.08,4.15,3.08,7.28v2.32c0,3.94-.75,5.18-3.08,7.34-2.16,2.11-3.67,3.08-7.28,3.08h-11.54ZM522.96,372.82c-.92-.97-1.72-1.3-3.13-1.3h-12.19v14.46h12.19c1.4,0,2.26-.43,3.13-1.3.32-.32.7-.65.97-.97.97-.97,1.3-1.94,1.3-3.13v-3.67c0-1.19-.43-2.32-1.3-3.13-.32-.32-.65-.65-.97-.97Z"/>
      <path d="M558.76,376.7c2.53,0,4.58,2.05,4.58,4.58l-.05,7.61c0,2.53-2.05,4.58-4.58,4.58h-14.46v3.18c0,1.46.22,1.99,1.3,3.13.32.32.65.65.97.97,1.08,1.02,1.89,1.29,3.13,1.29h9.39v-2.53c0-1.19.97-2.16,2.16-2.16s2.16.97,2.16,2.16l-.05,2.21c0,2.53-2.05,4.58-4.58,4.58h-8.36c-3.67,0-4.8-.49-7.34-3.02-2.05-2.05-3.02-2.96-3.02-7.34v-8.9c0-3.67.59-4.91,3.02-7.34,2.1-2.11,3.45-3.02,7.34-3.02h8.41ZM544.25,389.22h14.78v-8.25h-9.39c-1.24,0-1.89.21-3.13,1.29-.32.32-.65.7-.97.97-1.02,1.02-1.3,1.62-1.3,3.12v2.86Z"/>
      <path d="M582,388.89v16.23c0,1.13-.97,2.11-2.16,2.11s-2.1-.97-2.1-2.11v-26.91c0-1.19.92-2.11,2.1-2.11s2.16.92,2.16,2.11v4.64l3.77-3.77c2.37-2.38,2.59-2.54,6.2-2.54,1.19,0,2.16.97,2.16,2.16s-.97,2.15-2.16,2.15h-1.94l-8.04,8.04Z"/>
      <path d="M624.16,385.76v-4.75h-15.86c-1.13,0-2.11-.97-2.11-2.16s.97-2.16,2.11-2.16h15.53c2.53,0,4.58,2.11,4.58,4.58v20.44c0,2.53-2.05,4.58-4.58,4.58h-8.47c-2.86,0-5.07-.65-7.5-3.08-2.21-2.21-2.97-3.56-2.97-7.18s.75-5.01,2.97-7.17c2.48-2.48,4.21-3.13,7.5-3.13h8.79ZM611.44,400.76c.92.92,1.89,1.29,3.13,1.29h9.6v-11.97h-9.6c-1.13,0-2.21.38-3.13,1.3-.32.27-.65.65-.97.97-.92.92-1.3,1.62-1.3,3.13v1.19c0,1.35.22,2.05,1.3,3.13.32.32.65.65.97.97Z"/>
      <path d="M649.45,376.81h5.18c1.13,0,2.11.97,2.11,2.1,0,1.19-.97,2.16-2.11,2.16h-5.18v21.04h4.75c1.19,0,2.1.92,2.1,2.1s-.92,2.16-2.1,2.16h-4.42c-2.53,0-4.58-2.11-4.58-4.64v-20.66h-3.02c-1.19,0-2.16-.97-2.16-2.16s.97-2.1,2.16-2.1h3.02v-4.64c0-1.19.92-2.16,2.11-2.16s2.16.97,2.16,2.16v4.64Z"/>
      <path d="M680.89,376.76c3.29,0,4.96.65,7.33,3.02,2.37,2.37,3.08,4.05,3.08,7.34v8.95c0,3.99-.92,5.18-3.08,7.34-2.37,2.38-4.31,3.02-7.33,3.02h-3.29c-2.91,0-4.85-.54-7.28-3.02-2.21-2.21-3.08-3.56-3.08-7.34v-8.95c0-3.99.65-4.91,3.08-7.34,2.26-2.27,4.21-3.02,7.28-3.02h3.29ZM686.98,386.41c0-1.51-.43-2.11-1.3-3.13-.27-.32-.65-.65-.97-.97-1.08-1.08-1.51-1.24-3.13-1.3h-4.64c-1.51,0-1.99.27-3.13,1.3-.38.32-.65.65-.97.97-1.03,1.02-1.3,1.72-1.3,3.13v10.35c0,1.24.05,1.89,1.3,3.13.32.27.65.65.97.97.92.92,2.1,1.3,3.13,1.3h4.64c1.67,0,1.99-.16,3.13-1.3.32-.32.65-.7.97-.97,1.03-1.02,1.3-1.83,1.3-3.13v-10.35Z"/>
      <path d="M708.22,388.89v16.23c0,1.13-.97,2.11-2.16,2.11s-2.1-.97-2.1-2.11v-26.91c0-1.19.92-2.11,2.1-2.11s2.16.92,2.16,2.11v4.64l3.77-3.77c2.37-2.38,2.59-2.54,6.2-2.54,1.19,0,2.16.97,2.16,2.16s-.97,2.15-2.16,2.15h-1.94l-8.04,8.04Z"/>
      <path d="M749.91,399.84c0,1.72-.7,3.4-1.94,4.64-1.24,1.24-2.91,1.89-4.64,1.89h-6.74c-2.21,0-3.13-.38-4.69-1.89-1.29-1.35-1.89-2.27-1.89-4.64v-2.7c0-1.19.92-2.11,2.1-2.11s2.16.92,2.16,2.11v2.7c0,.75,0,.92.7,1.62.38.43.97.65,1.62.65h6.74c.7,0,1.03-.06,1.62-.65.59-.59.65-1.02.65-1.62v-2.21c0-1.46-.32-1.94-1.72-2.37l-9.28-2.97c-2.53-.75-4.42-3.02-4.42-5.93v-3.02c-.05-2.43.65-3.4,1.89-4.64,1.35-1.35,2.37-1.94,4.64-1.94h6.74c2.53,0,3.29.54,4.69,1.94s1.89,2.43,1.89,4.64v2.37c0,1.19-.92,2.11-2.1,2.11s-2.16-.92-2.16-2.11v-2.37c.05-.81-.27-1.19-.7-1.62-.38-.49-.86-.7-1.78-.7h-6.53c-.7,0-1.03.05-1.67.7-.49.49-.65.81-.65,1.62v2.53c0,1.46.49,2,1.72,2.37l9.33,3.02c2.64.76,4.42,3.18,4.42,5.88v2.7Z"/>
      <path d="M813.43,399.62c-.65.97-2,1.24-2.97.6l-4.48-2.64c.06,1.83.11,2.75-1.56,4.69l-.92.92c-2.43,2.43-4.26,3.24-7.88,3.24h-4.37c-3.18,0-4.85-.59-7.34-3.02-2.91-2.96-3.02-4.15-3.02-7.34v-.54c0-4.1,1.67-5.56,3.99-6.9l4.04-2.32-3.02-1.94c-2.97-1.94-3.83-3.02-3.83-7.12v-.81c0-2.64.38-4.37,2.75-6.74,1.83-1.83,3.56-2.64,6.96-2.64h3.61c3.51,0,5.07.97,6.9,2.81,2.48,2.48,2.7,4.1,2.7,6.58l-.05.92c0,2.75-.27,4.69-3.99,6.85-1.24.7-2.59,1.51-4.05,2.32l5.12,3.29,1.89,1.18,3.29-3.02c1.19-1.13,2.64-1.35,3.51-.54,1.08.92.7,2.43-.27,3.34l-2.97,2.54,5.29,3.34c.97.65,1.24,1.94.65,2.96ZM802.05,394.88l-9.06-6.09c-2.43,1.4-4.69,2.86-6.2,3.72-1.13.65-1.56,1.3-1.56,2.75v1.51c0,1.13.43,2.27,1.3,3.13.27.27.65.65.97.97.81.81,1.94,1.4,3.13,1.4h5.99c1.19,0,2.16-.54,3.07-1.3.54-.43.81-.75,1.13-1.08,1.29-1.51,1.24-2.11,1.24-3.13v-1.89ZM793.1,384.03l6.04-3.61c.75-.43,1.56-1.29,1.56-2.86v-1.46c0-1.3.06-1.78-1.08-3.29-.11-.11-.32-.38-.49-.54-.7-.76-1.89-1.13-3.4-1.13h-4.53c-.86,0-2.37.22-3.45,1.3-.11.11-.27.27-.38.38-.65.65-1.08,1.94-1.02,3.29v1.62c0,1.51.49,2.15,1.56,2.8l5.18,3.5Z"/>
      <path d="M869.35,396.12c0,3.72-.7,5.01-3.07,7.34-2,2.05-3.61,3.02-7.28,3.02h-6.2c-2.64,0-4.85-.59-7.33-3.02-2.37-2.38-3.02-3.13-3.02-7.34v-27.89c0-1.19.97-2.16,2.16-2.16s2.1.97,2.1,2.16v28.59c0,1.67.32,2.11,1.3,3.13.32.32.7.65.97.97.97.92,1.83,1.24,3.18,1.3,2.8.11,5.01.11,7.5-.05,1.56-.11,2.1-.32,3.08-1.24.32-.32.75-.65,1.02-.97,1.13-1.35,1.3-1.94,1.3-3.13v-28.59c0-1.19.97-2.16,2.16-2.16s2.16.97,2.16,2.16v27.89Z"/>
      <path d="M907.15,396.12c0,3.77-.75,4.8-3.02,7.34-2.59,2.86-4.05,3.02-7.34,3.02h-4.48c-3.51-.05-4.85-.59-7.33-3.02-2.05-2.05-3.02-2.97-3.02-7.34v-3.67c0-1.19.92-2.16,2.11-2.16s2.16.97,2.16,2.16v4.31c0,1.78.43,2.32,1.3,3.13.32.32.65.7.97.97.81.86,1.94,1.35,3.13,1.35,2,0,3.88.05,5.88,0,1.51-.05,2-.43,3.13-1.35.32-.27.7-.59.97-.97,1.19-1.4,1.24-1.78,1.29-3.13.06-1.02,0-2.75,0-4.05,0-1.08-.7-2.05-1.72-2.37l-14.51-3.51c-2.64-.81-4.37-3.24-4.37-5.93v-3.45c0-3.45.38-4.69,3.02-7.28,2.48-2.53,3.77-2.96,7.34-2.96h4.1c3.88,0,5.07.75,7.28,3.02,2.1,2.11,3.13,3.51,3.08,7.34v2.7c0,1.19-.97,2.16-2.16,2.16s-2.16-.97-2.16-2.16c0-.7.05-2.7,0-3.4,0-1.57-.43-2.32-1.3-3.13-.32-.32-.65-.65-.97-.97-.97-.97-1.72-1.3-3.13-1.3h-5.45c-1.56,0-1.89.05-3.13,1.3-.32.32-.65.65-.97.97-.81.81-1.24,1.4-1.3,3.13-.05.75,0,2.64,0,3.56,0,1.51.65,2.05,1.73,2.43l14.51,3.61c2.64.81,4.37,3.24,4.37,5.93v3.72Z"/>
      <path d="M938.15,376.7c2.53,0,4.58,2.05,4.58,4.58l-.05,7.61c0,2.53-2.05,4.58-4.58,4.58h-14.46v3.18c0,1.46.22,1.99,1.3,3.13.32.32.65.65.97.97,1.08,1.02,1.89,1.29,3.13,1.29h9.39v-2.53c0-1.19.97-2.16,2.16-2.16s2.16.97,2.16,2.16l-.05,2.21c0,2.53-2.05,4.58-4.58,4.58h-8.36c-3.67,0-4.8-.49-7.34-3.02-2.05-2.05-3.02-2.96-3.02-7.34v-8.9c0-3.67.59-4.91,3.02-7.34,2.1-2.11,3.45-3.02,7.34-3.02h8.41ZM923.64,389.22h14.78v-8.25h-9.39c-1.24,0-1.89.21-3.13,1.29-.32.32-.65.7-.97.97-1.02,1.02-1.3,1.62-1.3,3.12v2.86Z"/>
      <path d="M961.38,388.89v16.23c0,1.13-.97,2.11-2.16,2.11s-2.1-.97-2.1-2.11v-26.91c0-1.19.92-2.11,2.1-2.11s2.16.92,2.16,2.11v4.64l3.77-3.77c2.37-2.38,2.59-2.54,6.2-2.54,1.19,0,2.16.97,2.16,2.16s-.97,2.15-2.16,2.15h-1.94l-8.04,8.04Z"/>
      <path d="M1003.07,399.84c0,1.72-.7,3.4-1.94,4.64-1.24,1.24-2.91,1.89-4.64,1.89h-6.74c-2.21,0-3.13-.38-4.69-1.89-1.29-1.35-1.89-2.27-1.89-4.64v-2.7c0-1.19.92-2.11,2.1-2.11s2.16.92,2.16,2.11v2.7c0,.75,0,.92.7,1.62.38.43.97.65,1.62.65h6.74c.7,0,1.03-.06,1.62-.65.59-.59.65-1.02.65-1.62v-2.21c0-1.46-.32-1.94-1.72-2.37l-9.28-2.97c-2.53-.75-4.42-3.02-4.42-5.93v-3.02c-.05-2.43.65-3.4,1.89-4.64,1.35-1.35,2.37-1.94,4.64-1.94h6.74c2.53,0,3.29.54,4.69,1.94s1.89,2.43,1.89,4.64v2.37c0,1.19-.92,2.11-2.1,2.11s-2.16-.92-2.16-2.11v-2.37c.05-.81-.27-1.19-.7-1.62-.38-.49-.86-.7-1.78-.7h-6.53c-.7,0-1.03.05-1.67.7-.49.49-.65.81-.65,1.62v2.53c0,1.46.49,2,1.72,2.37l9.33,3.02c2.64.76,4.42,3.18,4.42,5.88v2.7Z"/>
    </g>
  </g>
  <rect x="425.62" y="205.12" width="76.24" height="29.76" transform="translate(636.08 703.48) rotate(-135)"/>
</svg>