<?xml version="1.0" encoding="UTF-8"?>
<svg id="_レイヤー_1" data-name="レイヤー 1" xmlns="http://www.w3.org/2000/svg" viewBox="0 0 1000 1000">
  <defs>
    <style>
      .cls-1 {
        fill: none;
      }

      .cls-2 {
        fill: #1f1fdd;
      }

      .cls-3 {
        fill: #fff;
      }

      .cls-4 {
        fill: #180d21;
      }

      .cls-5 {
        fill: #e21331;
      }
    </style>
  </defs>
  <ellipse class="cls-3" cx="797.79" cy="303.53" rx="45.64" ry="90.23" transform="translate(-26.55 525) rotate(-35.87)"/>
  <g>
    <path class="cls-1" d="M433.4,455.46c-6.69-47.4-66.2-29.17-116.82,2.96-.03.03-.06.03-.09.06.18.06.33.09.51.15l.03-.03,1.17.36s.03,0,.06.03l1.55.48c31.11,9.68,54.84,13.75,72.98,13.84,19.52.18,32.55-4.21,41.33-11.06,0-1.23,0-2.42-.06-3.65-.27-.93-.51-1.97-.66-3.14Z"/>
    <path class="cls-1" d="M280.6,432.66c.66.03,1.31.06,1.97.09,47.34-1.82,81.11-16.41,103.32-33.98.21-.18.45-.39.72-.6.24-.21.51-.45.81-.66.63-.48,1.23-.96,1.82-1.46.18-.15.39-.33.57-.51,1.4-1.25,2.78-2.51,4.09-3.8-17.96,1.88-38.22,7.23-57.8,14.46-20.26,7.5-40.23,16.5-55.5,26.45Z"/>
    <path class="cls-1" d="M589.38,680.21c.24-.42.51-.84.75-1.23,13.12-21.49,19.84-38.13,22.38-51.05.12-.57.21-1.16.3-1.7-17.24,15.36-23.16,34.91-23.43,53.97Z"/>
    <path class="cls-1" d="M833.69,372.14c5.65,0,10.25-16.32,10.25-36.52s-4.6-36.49-10.25-36.49-10.25,16.35-10.25,36.49,4.6,36.52,10.25,36.52Z"/>
    <path class="cls-1" d="M397.24,504.87c-.57.39-1.14.78-1.67,1.16-.18.12-.36.24-.54.39-1.11.78-2.21,1.58-3.32,2.39-.06.06-.12.12-.21.18-1.14.87-2.27,1.76-3.38,2.69,21.67-4.81,33.56-13.81,39.78-24.33-10.1,4.27-20.8,10.61-30.84,17.6l.18-.09Z"/>
    <path class="cls-1" d="M790.99,337.09c6.96,0,12.64-20.17,12.64-45.1s-5.68-45.1-12.64-45.1-12.64,20.17-12.64,45.1,5.65,45.1,12.64,45.1Z"/>
    <path class="cls-1" d="M451.57,624.32c-11.6,13.33-20.23,27.68-26.69,42.05,24.39-16.56,38.16-36.64,45.04-57.5.15-.45.3-.93.42-1.37-6.87,5.11-13.12,10.79-18.77,16.83Z"/>
    <path class="cls-5" d="M471.36,508.6c.03-.09-.03-.18,0-.3-.09-.48-.12-1.02-.09-1.61v-.03c0-.54-.03-1.17-.06-1.7,0-1.11-.09-2.27-.21-3.29-.03-.54-.12-1.05-.12-1.58-2.96-21.91-21.55-21.91-42.98-12.73-6.22,10.52-18.11,19.52-39.78,24.33-18.68,15.45-34.58,37.21-36.79,40.23-.15.24-.24.36-.24.36-17.21,24.45-49.04,34.46-76.9,21.49-11.06-5.14-19.84-13.15-25.94-22.71-1.4,3.29-2.57,6.75-3.38,10.34-7.59,33.23,13.15,66.26,46.38,73.85,29.95,6.84,58.97-9.65,70.65-37.15,0,0,.06-.15.18-.42,1.58-3.62,13.84-31.02,30.24-50.39.06-.09.12-.15.18-.21.9-1.04,1.79-2.06,2.72-3.05.15-.18.3-.33.45-.48.45-.51.93-1.02,1.4-1.49l-.15.12c26.06-28,60.1-50.87,71.13-20.26.12.51.3.99.45,1.52.33.96.66,2.09.9,3.17.15.51.3,1.1.42,1.64v.03c.12.6.24,1.11.45,1.56-.03.12.06.21.06.3.12.51.27,1.05.39,1.55.57-6.19.78-12.31.72-18.23,0-1.64-.03-3.23-.09-4.84Z"/>
    <path class="cls-5" d="M612.81,626.23c-.09.54-.18,1.14-.3,1.7-2.54,12.91-9.26,29.56-22.38,51.05-.24.39-.51.81-.75,1.23-.39,24.74,8.79,48.68,15.33,61.8,15.24,30.51,2.81,67.54-27.58,82.75-.21.12-.45.21-.66.3.3.15.6.3.9.42,20.23,8.7,44.41,6.22,62.79-8.49,26.54-21.25,30.9-60.07,9.59-86.7-16.53-20.65-48.86-74.06-14.58-117.3.45-.57.9-1.1,1.34-1.67-8.46,3.74-15.54,8.13-21.4,12.94-.78.66-1.55,1.31-2.3,1.97Z"/>
    <path class="cls-5" d="M417.23,362.01c.27-.15.57-.33.93-.48.69-.33,1.38-.66,2.06-1.05.21-.09.45-.24.69-.36,23.31-13,36.82-33.71,44.05-53.08.03-.06.03-.12.03-.12,31.02-81.41,109.71-139.36,202.03-139.54,30.54-.03,59.62,6.25,85.98,17.63-46.56-30.07-104.6-42.26-163.06-29.62-90.23,19.57-154.99,92.77-168.2,178.87,0,0,0,.06-.03.12-1.4,9.56-4.09,19.73-8.64,29.62,1.14-.51,2.24-1.02,3.32-1.55.24-.15.51-.3.84-.45Z"/>
    <path class="cls-5" d="M244.37,491.81c1.7-3.65,3.74-7.05,6.01-10.22,14.35-19.64,39.03-29.02,62.7-23.94,1.14.27,2.27.51,3.41.84.03-.03.06-.03.09-.06,50.63-32.13,110.13-50.36,116.82-2.96.15,1.17.39,2.21.66,3.14.06,1.22.06,2.42.06,3.65,2.15-1.67,4.03-3.47,5.71-5.41,5.26-6.19,8.31-13.51,10.1-21.01.36-1.58.72-3.17.99-4.75-.06-.99-.09-2.06.03-3.23,2.21-31.11-23.37-39.69-57.05-36.1-1.31,1.28-2.69,2.54-4.09,3.8-.18.18-.39.36-.57.51-.6.51-1.2.99-1.82,1.46-.3.21-.57.45-.81.66-.27.21-.51.42-.72.6-22.21,17.57-55.98,32.16-103.32,33.98-.66-.03-1.31-.06-1.97-.09-2.33,1.52-4.54,3.08-6.63,4.63-12.19,9.09-26.99,25.22-26.99,25.22-22.35,20.38-56.42,24.21-83.29,7.26-11.42-7.23-19.99-17.24-25.43-28.6-7.77,7.17-14.02,16.26-17.93,26.93-13.15,35.83,5.23,75.55,41.06,88.7,29.38,10.76,61.42.33,79.14-23.58-3.44-13.36-2.42-27.94,3.86-41.42Z"/>
    <path class="cls-5" d="M559.82,582.42c-1.7-.12-3.44-.21-5.11-.27-34.88-1.31-62.7,9.21-84.37,25.34-.12.45-.27.93-.42,1.37-6.87,20.86-20.65,40.94-45.04,57.5-11,24.36-15.84,48.86-18.5,68.86-.06.33-.09.63-.15.96v.06c-5.86,37.63-38.37,66.47-77.67,66.56-9.29,0-18.2-1.58-26.48-4.57,13.39,36.16,51.64,57.89,90.46,49.52,38.4-8.34,64.14-43.37,61.95-81.38v-.09c-.03-.3-.06-.63-.09-.93-2.51-32.01-2.09-76.27,20.89-117.96,17.72-29.44,46.71-54.93,91.96-62.88.24-.03.45-.09.69-.12-3.89-1.23-6.96-1.76-8.07-1.94l-.06-.03Z"/>
    <path class="cls-2" d="M304.89,513.56c1.34,0,2.69.03,4.03.12v-.03l1.23.12h.06l1.61.15c32.46,2.93,56.51,1.91,74.27-1.79.69-.15,1.34-.3,2.03-.45,1.11-.93,2.24-1.82,3.38-2.69.09-.06.15-.12.21-.18,1.11-.81,2.21-1.61,3.32-2.39.18-.15.36-.27.54-.39.54-.39,1.11-.78,1.67-1.16l-.18.09c10.04-6.99,20.74-13.33,30.84-17.6.27-.42.48-.81.72-1.22,3.86-7.14,5.29-14.94,5.47-22.65,0-.42,0-.81.03-1.23-8.79,6.84-21.82,11.24-41.33,11.06-18.14-.09-41.87-4.15-72.98-13.84l-1.55-.48s-.06-.03-.06-.03l-1.17-.36-.03.03c-.18-.06-.33-.09-.51-.15-20.98,13.33-41.12,28.54-54.12,43.39-10.01,11.45-21.1,30.33-21.1,30.33-.24.36-.51.69-.75,1.02,1.61,6.31,4.24,12.31,7.74,17.81.09-.33.24-.63.36-.93,9.89-22.2,32.07-36.55,56.28-36.55Z"/>
    <path class="cls-2" d="M553.51,807.37c-19.16-23.97-17.54-57.83,2.39-79.83l.03-.06c14.05-17.87,25.01-33.59,33.44-47.28.27-19.07,6.19-38.61,23.43-53.97,7.56-44.08-35.59-42.8-40.41-42.53h-.06c-1.46.21-2.96.45-4.39.69,13.3,4.21,36.07,16.53,21.85,49.73-5.17,12.07-15.24,26.93-32.61,45.19-11.27,11.9-25.58,25.28-43.6,40.26l-.06.03c-24.09,17.33-32.78,50.09-19.1,77.55,4.75,9.38,11.51,17.06,19.52,22.71,17.78,12.64,41.6,15.36,62.52,5.2-8.67-3.82-16.56-9.77-22.95-17.69Z"/>
    <path class="cls-2" d="M821.17,231.56c-19.4-19.61-42.5-35.47-68.17-46.53.39.24.75.48,1.14.72,46.02,30.04,80.72,77.49,93.27,135.44,23.91,110.25-40.82,219.03-146.32,252.27-.57.27-1.23.48-2,.66-.06.03-.12.03-.18.06-1.73.54-3.53.99-5.29,1.46-11.33,3.68-25.94,11.21-27.97,12.25-12.61,7.2-22.12,15.12-29.11,23.4,4.21-1.88,8.76-3.62,13.66-5.17,2.18-.6,18.05-4.9,29.92-6.1,1.82-.12,3.65-.18,5.47-.33h.18c.81-.03,1.49-.12,2.12-.24,110.1-10.34,196.23-103.11,196.05-215.9-.12-59.29-24.06-112.97-62.76-152Z"/>
    <path class="cls-2" d="M334.57,703.82s9.38-6.6,26.45-10.34c5.8-1.29,11.57-2.66,17.15-4.54,17.99-6.1,32.87-13.36,45.16-21.52.51-.36,1.05-.69,1.55-1.04,6.46-14.38,15.09-28.72,26.69-42.05,5.65-6.04,11.89-11.72,18.77-16.83,7.86-24.72,6.13-50.45,1.11-72.65-.24-1.08-.48-2.12-.72-3.17-1.64,18.05-6.34,36.85-16.32,53.83-11.36,19.37-29.56,36.4-57.86,47.46-13.72,5.41-29.8,9.38-48.65,11.57-5.86.66-11.8.78-17.72.84-17.48.06-28.03,4.54-28.03,4.54-30.6,10.79-52.51,39.99-52.45,74.27.06,3.8.3,7.56.84,11.21,4.21,29.23,24.48,53.26,51.55,62.85-1.29-3.47-2.33-7.08-3.17-10.79-7.26-33.5,8.01-66.65,35.65-83.62Z"/>
    <path class="cls-2" d="M196.14,423.67v-.03s40.76,7.05,84.46,9.03c15.27-9.95,35.24-18.95,55.5-26.45,19.58-7.23,39.84-12.58,57.8-14.46,8.55-8.46,14.76-17.96,19.19-27.73-25.16,11.54-60.13,17.75-104.84,9.95-43.07-11.15-82.57-27.08-82.57-27.08v.03c-19.67-7.68-41.45-5.74-59.26,4.36-9.56,5.44-17.93,13.21-24.21,23.16-13.18,20.86-13.81,46.02-3.94,66.74.3-.3.57-.54.87-.81,15.3-13.6,36.19-20.08,57.02-16.71Z"/>
    <path class="cls-4" d="M262.37,501.88c13-14.85,33.14-30.07,54.12-43.39-1.14-.33-2.27-.57-3.41-.84-23.67-5.08-48.36,4.3-62.7,23.94-2.27,3.17-4.3,6.57-6.01,10.22-6.28,13.48-7.29,28.06-3.86,41.42.24-.33.51-.66.75-1.02,0,0,11.09-18.89,21.1-30.33Z"/>
    <path class="cls-4" d="M163.68,469.78c26.87,16.95,60.94,13.12,83.29-7.26,0,0,14.79-16.14,26.99-25.22,2.09-1.55,4.3-3.11,6.63-4.63-43.69-1.97-84.46-9.03-84.46-9.03v.03c-20.83-3.38-41.72,3.11-57.02,16.71-.3.27-.57.51-.87.81,5.44,11.36,14.02,21.37,25.43,28.6Z"/>
    <path class="cls-4" d="M665.65,587.89c2.03-1.05,16.65-8.58,27.97-12.25,1.76-.48,3.56-.93,5.29-1.46.06-.03.12-.03.18-.06.78-.18,1.43-.39,2-.66,105.5-33.23,170.23-142.02,146.32-252.27-12.55-57.95-47.25-105.41-93.27-135.44-.39-.24-.75-.48-1.14-.72-26.36-11.39-55.44-17.66-85.98-17.63-92.32.18-171.01,58.13-202.03,139.54,0,0,0,.06-.03.12-7.23,19.37-20.74,40.08-44.05,53.08-.24.12-.48.27-.69.36-.69.39-1.38.72-2.06,1.05-.36.15-.66.33-.93.48-.33.15-.6.3-.84.45-1.08.54-2.18,1.04-3.32,1.55-4.42,9.77-10.64,19.28-19.19,27.73,33.68-3.59,59.26,4.99,57.05,36.1-.12,1.16-.09,2.24-.03,3.23-.27,1.58-.63,3.17-.99,4.75-1.79,7.5-4.84,14.82-10.1,21.01-1.67,1.94-3.56,3.74-5.71,5.41-.03.42-.03.81-.03,1.23-.18,7.71-1.61,15.51-5.47,22.65-.24.42-.45.81-.72,1.22,21.43-9.17,40.02-9.17,42.98,12.73,0,.54.09,1.05.12,1.58.12,1.02.21,2.18.21,3.29.03.54.06,1.17.06,1.7v.03c-.03.6,0,1.14.09,1.61-.03.12.03.21,0,.3.06,1.61.09,3.2.09,4.84.06,5.92-.15,12.04-.72,18.23.24,1.05.48,2.09.72,3.17,5.02,22.21,6.75,47.94-1.11,72.65,21.67-16.14,49.49-26.66,84.37-25.34,1.67.06,3.41.15,5.11.27l.06.03c1.11.18,4.18.72,8.07,1.94,1.43-.24,2.93-.48,4.39-.69h.06c4.81-.27,47.97-1.55,40.41,42.53.75-.66,1.52-1.31,2.3-1.97,5.86-4.81,12.94-9.21,21.4-12.94,0,0,0-.03.03-.03,6.99-8.28,16.5-16.2,29.11-23.4ZM833.69,299.13c5.65,0,10.25,16.35,10.25,36.49s-4.6,36.52-10.25,36.52-10.25-16.32-10.25-36.52,4.6-36.49,10.25-36.49ZM790.99,246.89c6.96,0,12.64,20.17,12.64,45.1s-5.68,45.1-12.64,45.1-12.64-20.17-12.64-45.1,5.65-45.1,12.64-45.1Z"/>
    <path class="cls-4" d="M604.71,742.01c-6.55-13.12-15.72-37.06-15.33-61.8-8.43,13.69-19.4,29.41-33.44,47.28l-.03.06c-19.93,22-21.55,55.86-2.39,79.83,6.4,7.92,14.29,13.87,22.95,17.69.21-.09.45-.18.66-.3,30.39-15.21,42.83-52.24,27.58-82.75Z"/>
    <path class="cls-4" d="M274.2,573.75c27.85,12.97,59.68,2.96,76.9-21.49,0,0,.09-.12.24-.36,2.21-3.02,18.11-24.78,36.79-40.23-.69.15-1.34.3-2.03.45-17.75,3.71-41.81,4.72-74.27,1.79l-1.61-.15h-.06l-1.23-.12v.03c-1.34-.09-2.69-.12-4.03-.12-24.21,0-46.38,14.35-56.28,36.55-.12.3-.27.6-.36.93,6.1,9.56,14.88,17.57,25.94,22.71Z"/>
    <path class="cls-4" d="M406.24,736.24v-.06c.06-.33.09-.63.15-.96,2.66-19.99,7.5-44.5,18.5-68.86-.51.36-1.05.69-1.55,1.04-12.28,8.16-27.17,15.42-45.16,21.52-5.59,1.88-11.36,3.26-17.15,4.54-17.06,3.74-26.45,10.34-26.45,10.34-27.64,16.98-42.92,50.12-35.65,83.62.84,3.71,1.88,7.32,3.17,10.79,8.28,2.99,17.18,4.57,26.48,4.57,39.3-.09,71.82-28.93,77.67-66.56Z"/>
  </g>
</svg>